<svg width="120" height="51" viewBox="0 0 120 51" fill="none" xmlns="http://www.w3.org/2000/svg">
<g id="Camada_1" clip-path="url(#clip0_39_1823)">
<g id="Group">
<path id="Vector" d="M6.09574 43.985L7.94205 50.8944H6.47641L6.15402 49.4327H4.29779L3.9754 50.8944H2.50977L4.35607 43.985H6.0945H6.09574ZM5.91099 48.2903L5.23645 45.1839H5.21661L4.54207 48.2903H5.90975H5.91099Z" fill="white"/>
<path id="Vector_2" d="M12.7278 48.7165H12.7477V43.985H14.0373V50.8944H12.4352L10.7166 46.056H10.6968V50.8944H9.40723V43.985H11.0291L12.7291 48.7165H12.7278Z" fill="white"/>
<path id="Vector_3" d="M15.9179 45.9933C15.9662 45.5511 16.0741 45.1728 16.2403 44.8559C16.4064 44.5402 16.6457 44.2933 16.9582 44.1152C17.2707 43.9384 17.691 43.8487 18.218 43.8487C18.745 43.8487 19.1654 43.9371 19.4778 44.1152C19.7903 44.2933 20.0296 44.539 20.1958 44.8559C20.3619 45.1716 20.4698 45.5511 20.5182 45.9933C20.5665 46.4355 20.5913 46.917 20.5913 47.4403C20.5913 47.9636 20.5665 48.4537 20.5182 48.8922C20.4698 49.3307 20.3619 49.7078 20.1958 50.0247C20.0296 50.3404 19.7903 50.5824 19.4778 50.7506C19.1654 50.9189 18.745 51.0024 18.218 51.0024C17.691 51.0024 17.2707 50.9189 16.9582 50.7506C16.6457 50.5824 16.4064 50.3416 16.2403 50.0247C16.0741 49.709 15.9662 49.3319 15.9179 48.8922C15.8695 48.4537 15.8447 47.9697 15.8447 47.4403C15.8447 46.9109 15.8695 46.4355 15.9179 45.9933ZM17.2856 48.6244C17.3079 48.9499 17.3538 49.2152 17.422 49.4179C17.4902 49.6206 17.5881 49.7692 17.7146 49.8626C17.8411 49.9559 18.0097 50.0026 18.218 50.0026C18.4263 50.0026 18.5937 49.9559 18.7214 49.8626C18.8479 49.7692 18.9459 49.6206 19.0141 49.4179C19.0823 49.2152 19.1282 48.9499 19.1505 48.6244C19.1728 48.2989 19.1852 47.9034 19.1852 47.4391C19.1852 46.9748 19.174 46.5817 19.1505 46.2587C19.1282 45.9368 19.0823 45.6715 19.0141 45.4652C18.9459 45.2588 18.8479 45.109 18.7214 45.0156C18.595 44.9222 18.4263 44.8756 18.218 44.8756C18.0097 44.8756 17.8423 44.9222 17.7146 45.0156C17.5881 45.109 17.4902 45.2588 17.422 45.4652C17.3538 45.6715 17.3079 45.9356 17.2856 46.2587C17.2632 46.5817 17.2508 46.9748 17.2508 47.4391C17.2508 47.9034 17.262 48.2989 17.2856 48.6244Z" fill="white"/>
<path id="Vector_4" d="M23.5324 48.9389C23.5324 49.0998 23.5448 49.2472 23.5709 49.3786C23.5969 49.5113 23.6453 49.6218 23.7172 49.7127C23.7891 49.8036 23.8846 49.8736 24.0049 49.9252C24.1251 49.9768 24.2764 50.0026 24.4587 50.0026C24.6732 50.0026 24.8666 49.9338 25.0402 49.795C25.2126 49.6562 25.2994 49.4413 25.2994 49.1514C25.2994 48.9966 25.2783 48.8627 25.2361 48.7497C25.194 48.6367 25.1233 48.5348 25.0266 48.4451C24.9286 48.3554 24.7997 48.2731 24.641 48.1982C24.481 48.1245 24.2839 48.0484 24.0495 47.971C23.737 47.8678 23.4667 47.7548 23.2386 47.6319C23.0104 47.5091 22.8195 47.3654 22.6669 47.2008C22.5144 47.0362 22.4016 46.8458 22.3297 46.6296C22.2578 46.4134 22.2218 46.1641 22.2218 45.8791C22.2218 45.195 22.414 44.6852 22.7984 44.3499C23.1828 44.0145 23.7098 43.8463 24.3806 43.8463C24.693 43.8463 24.9807 43.8806 25.2448 43.9482C25.5089 44.0158 25.7359 44.1263 25.928 44.2774C26.1202 44.4285 26.2703 44.6226 26.3769 44.8584C26.4836 45.0942 26.5381 45.3755 26.5381 45.7047V45.8988H25.1903C25.1903 45.5696 25.132 45.3166 25.0142 45.1397C24.8964 44.9628 24.7017 44.8731 24.4277 44.8731C24.2715 44.8731 24.1413 44.8952 24.0371 44.9407C23.9329 44.9861 23.8499 45.0451 23.7879 45.12C23.7259 45.1937 23.6837 45.2797 23.6614 45.3767C23.6391 45.4738 23.6267 45.5733 23.6267 45.6765C23.6267 45.889 23.6726 46.0683 23.7631 46.2132C23.8536 46.3582 24.0495 46.4921 24.3496 46.6149L25.4333 47.0792C25.6999 47.1959 25.9181 47.3163 26.088 47.4416C26.2566 47.5668 26.3918 47.7032 26.4935 47.8481C26.5939 47.9931 26.6646 48.1528 26.703 48.3272C26.7415 48.5016 26.7613 48.6944 26.7613 48.9082C26.7613 49.6378 26.548 50.1672 26.1215 50.5001C25.6949 50.833 25.101 50.9988 24.3384 50.9988C23.5758 50.9988 22.9757 50.828 22.6335 50.4866C22.2912 50.1451 22.1201 49.655 22.1201 49.0163V48.7362H23.5262V48.9389H23.5324Z" fill="white"/>
</g>
<path id="Vector_5" d="M51.0543 18.9039C46.299 18.7553 41.2809 19.7318 36.4822 21.9759C34.4859 22.9107 32.6359 24.015 30.9445 25.2543C30.7189 25.0922 30.4969 24.9251 30.2774 24.7569V24.7544C30.0443 24.5775 29.8149 24.397 29.588 24.2139C29.5496 24.1832 29.5111 24.1525 29.4727 24.1218C29.3388 24.0137 29.2086 23.902 29.0759 23.7914C28.911 23.6526 28.7461 23.515 28.5849 23.3738C28.5688 23.359 28.5514 23.3443 28.5353 23.3296C28.2947 23.1183 28.0579 22.9046 27.826 22.6871V22.6896C27.6624 22.5373 27.4987 22.3862 27.34 22.2314C27.521 21.7978 27.7157 21.3704 27.924 20.9491C28.0616 20.6702 28.2079 20.3951 28.358 20.1224C28.3952 20.0561 28.4311 19.9885 28.4683 19.9222C28.9656 19.0378 29.5223 18.1804 30.1398 17.3587C32.4263 16.7592 34.838 16.3944 37.3341 16.3048L37.5461 12.5424H55.3408V3.47001H29.5632V0H2.56177V8.41033H16.8635L8.2718 16.177L9.76596 21.5866H14.1418C18.0378 21.5866 20.2251 23.0323 20.2251 25.4435V25.5504C20.2251 27.8535 18.3577 29.3533 15.4227 29.3533C12.0078 29.3533 9.17945 27.7994 6.51105 25.0676L0 31.6035C3.62813 35.6214 8.69835 38.2451 15.9025 38.2451C24.2277 38.2451 30.3109 33.3711 30.3109 25.7641V25.7432C28.6147 27.0538 27.0833 28.4947 25.7491 30.0473C25.7565 27.6225 26.2066 25.2789 27.0238 23.0642C28.043 24.0113 29.1392 24.9079 30.3109 25.7408V25.656C30.3109 25.4312 30.2985 25.2175 30.2874 25.0013L34.2714 27.227C36.135 26.0933 38.1686 25.2421 40.5977 25.2421C44.0435 25.2421 46.4156 26.9998 46.4156 29.8348V29.9478C46.4156 32.7827 44.2122 34.5982 40.5977 34.5982C37.2646 34.5982 34.2143 33.01 30.9941 30.288L24.7236 37.6592C28.8478 41.5149 33.7617 43.9531 40.7663 43.9531C50.3698 43.9531 57.0917 38.6799 57.0917 29.8335V29.7205C57.0917 24.3847 54.6229 20.8336 51.0543 18.9002V18.9039ZM26.999 21.0633C26.9085 21.25 26.8229 21.4367 26.7373 21.6259C26.0157 20.8827 25.3362 20.1163 24.7088 19.324C25.5445 18.9309 26.41 18.5809 27.2953 18.2615C25.5643 16.6696 23.227 15.6759 20.6516 15.1072L28.6357 8.24451L28.0889 17.9863C28.3468 17.9004 28.6047 17.8144 28.8664 17.7345C28.5899 18.1669 28.3257 18.6103 28.0678 19.0599C28.0616 19.071 28.0554 19.082 28.0492 19.0931C28.0418 19.1066 28.0331 19.1189 28.0257 19.1324V19.1361C27.6661 19.7637 27.3226 20.4049 27.0002 21.0658L26.999 21.0633Z" fill="white"/>
<g id="Group_2">
<path id="Vector_6" d="M69.1492 28.6224V30.643H65.9687V32.2644H68.9471V34.2051H65.9687V36.093H69.2695V38.1136H63.4727V28.6236H69.148L69.1492 28.6224Z" fill="white"/>
<path id="Vector_7" d="M73.3214 28.6224L74.9309 34.4704H74.9582V28.6224H77.293V38.1124H74.5564L72.8924 32.2508H72.8651V38.1124H70.5303V28.6224H73.3214Z" fill="white"/>
<path id="Vector_8" d="M82.5535 31.1343C82.5535 30.8505 82.4952 30.6098 82.3787 30.4096C82.2621 30.2106 82.0836 30.1111 81.8418 30.1111C81.5739 30.1111 81.3768 30.1971 81.2515 30.3703C81.1263 30.5435 81.0643 30.7363 81.0643 30.9488C81.0643 31.2596 81.1647 31.5052 81.3656 31.687C81.5665 31.8688 81.8194 32.0261 82.1232 32.1587C82.427 32.2914 82.7544 32.4265 83.1028 32.5641C83.4512 32.7016 83.7786 32.881 84.0824 33.1021C84.3862 33.3232 84.6391 33.6143 84.84 33.9729C85.0409 34.3316 85.1413 34.7996 85.1413 35.3757C85.1413 36.3854 84.8499 37.1187 84.2696 37.5756C83.6881 38.0326 82.8474 38.2598 81.7475 38.2598C81.2292 38.2598 80.7704 38.218 80.3724 38.1333C79.9744 38.0498 79.6384 37.9024 79.3656 37.6948C79.0928 37.4872 78.8845 37.2145 78.7419 36.8767C78.5993 36.5401 78.5273 36.1237 78.5273 35.6275V35.2946H80.9428V35.5206C80.9428 35.9284 81.0184 36.2146 81.1709 36.378C81.3235 36.5426 81.5194 36.6237 81.7612 36.6237C82.0203 36.6237 82.22 36.5352 82.3588 36.3583C82.4977 36.1815 82.5671 35.9641 82.5671 35.7073C82.5671 35.3978 82.4704 35.1509 82.2782 34.9703C82.086 34.7886 81.8443 34.6338 81.5541 34.5048C81.2639 34.3771 80.9478 34.2456 80.608 34.113C80.2683 33.9803 79.9521 33.8071 79.6619 33.5946C79.3718 33.3821 79.13 33.1033 78.9378 32.7569C78.7456 32.4117 78.6489 31.9597 78.6489 31.4008C78.6489 30.4354 78.908 29.6996 79.4276 29.1948C79.9459 28.6899 80.7332 28.4369 81.7884 28.4369C82.8437 28.4369 83.6695 28.669 84.1568 29.1346C84.6441 29.6001 84.8884 30.342 84.8884 31.3603H82.5535V31.1343Z" fill="white"/>
<path id="Vector_9" d="M88.7793 28.6224V38.1124H86.2832V28.6224H88.7793Z" fill="white"/>
<path id="Vector_10" d="M93.005 28.6224L94.6145 34.4704H94.6418V28.6224H96.9766V38.1124H94.24L92.576 32.2508H92.5487V38.1124H90.2139V28.6224H93.005Z" fill="white"/>
<path id="Vector_11" d="M98.3985 31.1011C98.515 30.4759 98.7072 29.9674 98.9751 29.5731C99.2429 29.1788 99.5963 28.8914 100.035 28.7096C100.473 28.5278 101.01 28.4369 101.645 28.4369C102.28 28.4369 102.816 28.5278 103.254 28.7096C103.692 28.8914 104.045 29.1788 104.314 29.5731C104.582 29.9674 104.774 30.4771 104.891 31.1011C105.007 31.7251 105.066 32.4818 105.066 33.3674C105.066 34.253 105.007 35.0084 104.891 35.6336C104.774 36.2589 104.582 36.7674 104.314 37.1617C104.047 37.556 103.692 37.8373 103.254 38.0055C102.815 38.1738 102.28 38.2586 101.645 38.2586C101.01 38.2586 100.473 38.1738 100.035 38.0055C99.5963 37.8373 99.2441 37.556 98.9751 37.1617C98.7072 36.7674 98.5138 36.2576 98.3985 35.6336C98.2819 35.0084 98.2236 34.253 98.2236 33.3674C98.2236 32.4818 98.2819 31.7263 98.3985 31.1011ZM100.826 34.9556C100.844 35.3769 100.882 35.711 100.94 35.9591C100.999 36.2073 101.083 36.3805 101.196 36.4775C101.307 36.5745 101.457 36.6237 101.645 36.6237C101.832 36.6237 101.982 36.5745 102.094 36.4775C102.205 36.3805 102.291 36.2073 102.349 35.9591C102.407 35.711 102.444 35.3769 102.463 34.9556C102.48 34.5343 102.49 34.0049 102.49 33.3674C102.49 32.7299 102.482 32.2005 102.463 31.7792C102.444 31.3578 102.407 31.0237 102.349 30.7756C102.291 30.5275 102.206 30.3543 102.094 30.2573C101.982 30.1602 101.832 30.1111 101.645 30.1111C101.457 30.1111 101.307 30.1602 101.196 30.2573C101.084 30.3543 100.999 30.5275 100.94 30.7756C100.882 31.0237 100.844 31.3578 100.826 31.7792C100.808 32.2005 100.799 32.7299 100.799 33.3674C100.799 34.0049 100.808 34.5343 100.826 34.9556Z" fill="white"/>
<path id="Vector_12" d="M67.2039 43.7258C67.2039 43.4421 67.1456 43.2013 67.0291 43.0011C66.9125 42.8021 66.7339 42.7026 66.4922 42.7026C66.2243 42.7026 66.0272 42.7886 65.9019 42.9618C65.7767 43.135 65.7147 43.3279 65.7147 43.5404C65.7147 43.8511 65.8151 44.0968 66.016 44.2786C66.2169 44.4604 66.4698 44.6176 66.7736 44.7503C67.0774 44.8829 67.4048 45.018 67.7532 45.1556C68.1016 45.2932 68.429 45.4725 68.7328 45.6936C69.0366 45.9147 69.2895 46.2058 69.4904 46.5645C69.6913 46.9232 69.7917 47.3912 69.7917 47.9672C69.7917 48.9769 69.5003 49.7102 68.92 50.1672C68.3385 50.6241 67.4978 50.8513 66.3979 50.8513C65.8796 50.8513 65.4208 50.8096 65.0228 50.7248C64.6248 50.6413 64.2887 50.4939 64.016 50.2863C63.7432 50.0787 63.5348 49.806 63.3922 49.4683C63.2496 49.1317 63.1777 48.7153 63.1777 48.219V47.8862H65.5932V48.1122C65.5932 48.52 65.6688 48.8062 65.8213 48.9696C65.9739 49.1342 66.1698 49.2152 66.4116 49.2152C66.6707 49.2152 66.8703 49.1268 67.0092 48.9499C67.1481 48.773 67.2175 48.5556 67.2175 48.2989C67.2175 47.9894 67.1208 47.7425 66.9286 47.5619C66.7364 47.3801 66.4946 47.2253 66.2045 47.0964C65.9143 46.9686 65.5981 46.8372 65.2584 46.7045C64.9186 46.5719 64.6024 46.3987 64.3123 46.1862C64.0221 45.9737 63.7804 45.6948 63.5882 45.3485C63.396 45.0033 63.2992 44.5513 63.2992 43.9924C63.2992 43.0269 63.5584 42.2912 64.0779 41.7863C64.5963 41.2815 65.3836 41.0284 66.4388 41.0284C67.494 41.0284 68.3199 41.2606 68.8072 41.7261C69.2945 42.1917 69.5387 42.9336 69.5387 43.9519H67.2039V43.7258Z" fill="white"/>
<path id="Vector_13" d="M73.4164 48.0594C73.4164 48.52 73.4834 48.8283 73.6173 48.9831C73.7512 49.1378 73.9347 49.2152 74.1678 49.2152C74.401 49.2152 74.5832 49.1378 74.7184 48.9831C74.8523 48.8283 74.9193 48.52 74.9193 48.0594V41.2139H77.4153V47.4342C77.4153 48.0987 77.3434 48.6527 77.2008 49.0961C77.0582 49.5395 76.8499 49.8933 76.5771 50.1598C76.3043 50.4251 75.967 50.6069 75.564 50.7052C75.1611 50.8022 74.6961 50.8514 74.1691 50.8514C73.6421 50.8514 73.187 50.8022 72.7803 50.7052C72.3736 50.6081 72.0339 50.4264 71.7611 50.1598C71.4883 49.8945 71.28 49.5395 71.1374 49.0961C70.9948 48.6527 70.9229 48.0987 70.9229 47.4342V41.2139H73.4189V48.0594H73.4164Z" fill="white"/>
<path id="Vector_14" d="M82.4864 41.2139C82.96 41.2139 83.3717 41.2889 83.7214 41.4399C84.0698 41.591 84.3587 41.7974 84.5869 42.0578C84.815 42.3194 84.9824 42.6277 85.0903 42.9815C85.1982 43.3365 85.2515 43.7209 85.2515 44.1373C85.2515 45.1212 84.9849 45.8582 84.4529 46.3508C83.921 46.8421 83.1398 47.089 82.1119 47.089H81.2402V50.704H78.7441V41.2139H82.4876H82.4864ZM81.7077 45.3079C82.0201 45.3079 82.2594 45.2146 82.4256 45.0291C82.5905 44.8436 82.6736 44.5501 82.6736 44.1521C82.6736 43.3807 82.3512 42.9962 81.7077 42.9962H81.2377V45.3092H81.7077V45.3079Z" fill="white"/>
<path id="Vector_15" d="M92.0662 41.2139V43.2345H88.8857V44.8559H91.8641V46.7967H88.8857V48.6846H92.1865V50.7052H86.3896V41.2152H92.065L92.0662 41.2139Z" fill="white"/>
<path id="Vector_16" d="M97.3432 41.2139C97.8157 41.2139 98.2199 41.2753 98.5547 41.3994C98.8895 41.5235 99.161 41.6979 99.3718 41.9239C99.5814 42.1499 99.7339 42.4177 99.8269 42.7284C99.9211 43.0392 99.967 43.3758 99.967 43.7381C99.967 44.3756 99.838 44.8903 99.5801 45.2797C99.3222 45.6691 98.9081 45.9086 98.3389 45.997V46.024C98.9353 46.0769 99.3445 46.2857 99.5665 46.6493C99.7884 47.0128 99.9 47.5128 99.9 48.1515V49.3479C99.9 49.4805 99.905 49.6071 99.9137 49.7262C99.9224 49.8454 99.936 49.9547 99.9534 50.0517C99.9707 50.1488 99.993 50.2249 100.02 50.2777C100.056 50.3305 100.092 50.3821 100.128 50.4313C100.164 50.4804 100.222 50.5271 100.303 50.5713V50.704H97.6582C97.5962 50.5799 97.5491 50.4337 97.5181 50.2654C97.4871 50.0972 97.4647 49.9289 97.4511 49.7606C97.4375 49.5923 97.4288 49.4302 97.4251 49.2754C97.4201 49.1206 97.4189 48.9941 97.4189 48.8971V48.2596C97.4189 47.9943 97.4052 47.7719 97.3792 47.5951C97.3519 47.4182 97.3048 47.2782 97.2378 47.1762C97.1709 47.0743 97.0853 47.003 96.9824 46.9637C96.8795 46.9232 96.7518 46.9035 96.6005 46.9035H95.9433V50.7052H93.4473V41.2152H97.3432V41.2139ZM96.4393 45.2281C96.7964 45.2281 97.0605 45.1237 97.2304 44.9161C97.4003 44.7085 97.4858 44.4358 97.4858 44.098C97.4858 43.6988 97.4028 43.4163 97.2378 43.248C97.0717 43.0798 96.8014 42.995 96.4257 42.995H95.9421V45.2281H96.4381H96.4393Z" fill="white"/>
<path id="Vector_17" d="M103.899 41.2139V50.704H101.403V41.2139H103.899Z" fill="white"/>
<path id="Vector_18" d="M105.229 43.6927C105.345 43.0675 105.537 42.5589 105.805 42.1646C106.073 41.7703 106.426 41.4829 106.865 41.3011C107.303 41.1193 107.84 41.0284 108.475 41.0284C109.11 41.0284 109.647 41.1193 110.084 41.3011C110.522 41.4829 110.875 41.7703 111.144 42.1646C111.412 42.5589 111.604 43.0687 111.721 43.6927C111.838 44.3167 111.896 45.0733 111.896 45.9589C111.896 46.8446 111.838 47.6 111.721 48.2252C111.604 48.8504 111.412 49.3589 111.144 49.7532C110.877 50.1475 110.522 50.4288 110.084 50.5971C109.645 50.7654 109.11 50.8501 108.475 50.8501C107.84 50.8501 107.303 50.7654 106.865 50.5971C106.426 50.4288 106.074 50.1475 105.805 49.7532C105.537 49.3589 105.344 48.8492 105.229 48.2252C105.112 47.6 105.054 46.8446 105.054 45.9589C105.054 45.0733 105.112 44.3179 105.229 43.6927ZM107.656 47.5472C107.674 47.9685 107.712 48.3026 107.77 48.5507C107.829 48.7988 107.913 48.972 108.026 49.0691C108.138 49.1661 108.288 49.2152 108.475 49.2152C108.662 49.2152 108.812 49.1661 108.924 49.0691C109.035 48.972 109.121 48.7988 109.179 48.5507C109.237 48.3026 109.275 47.9685 109.293 47.5472C109.311 47.1258 109.32 46.5964 109.32 45.9589C109.32 45.3214 109.312 44.792 109.293 44.3707C109.275 43.9494 109.237 43.6153 109.179 43.3672C109.121 43.1191 109.036 42.9459 108.924 42.8488C108.812 42.7518 108.662 42.7026 108.475 42.7026C108.288 42.7026 108.138 42.7518 108.026 42.8488C107.914 42.9459 107.829 43.1191 107.77 43.3672C107.712 43.6153 107.674 43.9494 107.656 44.3707C107.638 44.792 107.629 45.3214 107.629 45.9589C107.629 46.5964 107.638 47.1258 107.656 47.5472Z" fill="white"/>
<path id="Vector_19" d="M117.041 41.2139C117.513 41.2139 117.917 41.2753 118.252 41.3994C118.587 41.5235 118.858 41.6979 119.069 41.9239C119.279 42.1499 119.431 42.4177 119.524 42.7284C119.618 43.0392 119.664 43.3758 119.664 43.7381C119.664 44.3756 119.535 44.8903 119.277 45.2797C119.019 45.6691 118.605 45.9086 118.036 45.997V46.024C118.633 46.0769 119.042 46.2857 119.264 46.6493C119.486 47.0128 119.597 47.5128 119.597 48.1515V49.3479C119.597 49.4805 119.602 49.6071 119.611 49.7262C119.62 49.8454 119.633 49.9547 119.651 50.0517C119.668 50.1488 119.69 50.2249 119.718 50.2777C119.754 50.3305 119.789 50.3821 119.825 50.4313C119.861 50.4804 119.92 50.5271 120 50.5713V50.704H117.355C117.293 50.5799 117.246 50.4337 117.215 50.2654C117.184 50.0972 117.162 49.9289 117.148 49.7606C117.135 49.5923 117.126 49.4302 117.122 49.2754C117.117 49.1206 117.116 48.9941 117.116 48.8971V48.2596C117.116 47.9943 117.102 47.7719 117.076 47.5951C117.049 47.4182 117.002 47.2782 116.935 47.1762C116.868 47.0743 116.783 47.003 116.68 46.9637C116.577 46.9232 116.449 46.9035 116.298 46.9035H115.641V50.7052H113.145V41.2152H117.041V41.2139ZM116.137 45.2281C116.494 45.2281 116.758 45.1237 116.928 44.9161C117.098 44.7085 117.183 44.4358 117.183 44.098C117.183 43.6988 117.1 43.4163 116.935 43.248C116.769 43.0798 116.499 42.995 116.123 42.995H115.639V45.2281H116.135H116.137Z" fill="white"/>
</g>
</g>
<defs>
<clipPath id="clip0_39_1823">
<rect width="120" height="51" fill="white"/>
</clipPath>
</defs>
</svg>
